HIERARCHY
ROOT Hips
{
	OFFSET	0.00	0.00	0.00
	CHANNELS 6 Xposition Yposition Zposition Zrotation Xrotation Yrotation
	JOINT LeftUpLeg
	{
		OFFSET	 0.126116	-0.014019	-0.065224
		CHANNELS 3 Zrotation Xrotation Yrotation
		JOINT LeftLeg
		{
			OFFSET	 0.000000	 0.000000	 0.569914
			CHANNELS 3 Zrotation Xrotation Yrotation
			JOINT LeftFoot
			{
				OFFSET	 0.000000	 0.000000	 0.544423
				CHANNELS 3 Zrotation Xrotation Yrotation
				JOINT LeftToeBase
				{
					OFFSET	 0.000000	 0.000000	 0.207117
					CHANNELS 3 Zrotation Xrotation Yrotation
					End Site
					{
						OFFSET	 0.000000	 0.000000	 0.207117
					}
				}
			}
		}
	}
	JOINT RightUpLeg
	{
		OFFSET	-0.124023	-0.008373	-0.065224
		CHANNELS 3 Zrotation Xrotation Yrotation
		JOINT RightLeg
		{
			OFFSET	 0.000000	 0.000000	 0.570047
			CHANNELS 3 Zrotation Xrotation Yrotation
			JOINT RightFoot
			{
				OFFSET	 0.000000	 0.000000	 0.544354
				CHANNELS 3 Zrotation Xrotation Yrotation
				JOINT RightToeBase
				{
					OFFSET	 0.000000	 0.000000	 0.207540
					CHANNELS 3 Zrotation Xrotation Yrotation
					End Site
					{
						OFFSET	 0.000000	 0.000000	 0.207540
					}
				}
			}
		}
	}
	JOINT Spine
	{
		OFFSET	 0.000184	-0.007763	 0.117403
		CHANNELS 3 Zrotation Xrotation Yrotation
		JOINT Spine1
		{
			OFFSET	 0.000000	 0.000000	 0.137269
			CHANNELS 3 Zrotation Xrotation Yrotation
			JOINT Spine2
			{
				OFFSET	 0.000000	 0.000000	 0.156879
				CHANNELS 3 Zrotation Xrotation Yrotation
				JOINT LeftShoulder
				{
					OFFSET	 0.080501	-0.002496	 0.160144
					CHANNELS 3 Zrotation Xrotation Yrotation
					JOINT LeftArm
					{
						OFFSET	 0.000000	 0.000000	 0.164363
						CHANNELS 3 Zrotation Xrotation Yrotation
						JOINT LeftForeArm
						{
							OFFSET	 0.000000	 0.000000	 0.364576
							CHANNELS 3 Zrotation Xrotation Yrotation
							JOINT LeftHand
							{
								OFFSET	 0.000000	 0.000000	 0.360812
								CHANNELS 3 Zrotation Xrotation Yrotation
								JOINT LeftHandIndex1
								{
									OFFSET	 0.000000	 0.000000	 0.086006
									CHANNELS 3 Zrotation Xrotation Yrotation
									JOINT LeftHandIndex2
									{
										OFFSET	 0.000000	 0.000000	 0.047236
										CHANNELS 3 Zrotation Xrotation Yrotation
										JOINT LeftHandIndex3
										{
											OFFSET	-0.004284	-0.000551	 0.038166
											CHANNELS 3 Zrotation Xrotation Yrotation
											End Site
											{
												OFFSET	-0.004284	-0.000551	 0.038166
											}
										}
									}
								}
							}
						}
					}
				}
				JOINT Neck
				{
					OFFSET	 0.000000	 0.000000	 0.176489
					CHANNELS 3 Zrotation Xrotation Yrotation
					JOINT Head
					{
						OFFSET	 0.000000	-0.001747	 0.077940
						CHANNELS 3 Zrotation Xrotation Yrotation
						End Site
						{
							OFFSET	 0.000000	-0.001747	 0.077940
						}
					}
				}
				JOINT RightShoulder
				{
					OFFSET	-0.080363	 0.000306	 0.159706
					CHANNELS 3 Zrotation Xrotation Yrotation
					JOINT RightArm
					{
						OFFSET	 0.000000	 0.000000	 0.164196
						CHANNELS 3 Zrotation Xrotation Yrotation
						JOINT RightForeArm
						{
							OFFSET	 0.000000	 0.000000	 0.365611
							CHANNELS 3 Zrotation Xrotation Yrotation
							JOINT RightHand
							{
								OFFSET	 0.000000	 0.000000	 0.360648
								CHANNELS 3 Zrotation Xrotation Yrotation
								JOINT RightHandIndex1
								{
									OFFSET	 0.000000	 0.000000	 0.069977
									CHANNELS 3 Zrotation Xrotation Yrotation
									JOINT RightHandIndex2
									{
										OFFSET	 0.000000	 0.000000	 0.052305
										CHANNELS 3 Zrotation Xrotation Yrotation
										JOINT RightHandIndex3
										{
											OFFSET	 0.009002	-0.000782	 0.042196
											CHANNELS 3 Zrotation Xrotation Yrotation
											End Site
											{
												OFFSET	 0.009002	-0.000782	 0.042196
											}
										}
									}
								}
							}
						}
					}
				}
			}
		}
	}
}
MOTION
Frames:    5
Frame Time: 0.03333334
-0.000649	 0.020550	 1.258961	 0.002889	-0.001723	-0.185393	 16.903860	-6.707280	 175.734000	 1.350523	-19.279380	-1.153034	-13.422410	 73.252110	 7.900982	-2.385833	 28.452760	 0.000004	-16.944770	-7.424604	-175.480900	-1.322258	-20.078470	 1.182744	 13.251850	 73.599390	-7.832529	 2.384658	 28.388730	 0.000004	-3.912497	 2.845629	-0.120761	 2.170794	 3.324151	 0.875044	-6.538361	-4.041608	-1.392644	-91.776180	 78.527430	 180.000000	 47.753450	 34.027050	-60.386940	-12.290380	 0.373642	-2.685838	-29.786130	 0.021760	-4.349702	-2.635965	 4.993658	 6.788941	-5.165319	 0.784187	 3.516649	-5.225038	 0.466231	 0.424329	-0.000002	-3.783157	-0.089647	-6.375865	 4.830229	 0.269175	 89.782120	 78.203890	 180.000000	-61.075430	 40.623630	 58.142250	 11.780430	 0.398348	 2.706477	 29.071140	-1.021817	 8.775442	 6.112037	 4.509576	-0.364401	 4.968462	 1.518543	-9.347576	 5.168945	 0.703820	 2.021906
-0.000647	 0.021219	 1.249073	 0.003102	-0.002148	-0.181009	 19.125410	-9.559727	 175.773100	 1.214949	-24.680420	-1.514860	-16.328990	 75.705050	 10.924800	-2.385833	 28.452760	 0.000004	-19.163460	-10.199940	-175.530600	-1.188213	-25.303550	 1.529860	 16.054560	 75.982450	-10.741650	 2.384658	 28.388730	 0.000004	-10.901210	 2.910808	-0.129460	 2.151316	 3.096581	 0.880980	-6.482579	-3.753372	-1.360470	-91.776180	 78.527420	 180.000000	 47.323790	 33.694490	-59.779610	-15.885520	 0.809886	-4.620815	-30.147440	 0.102340	-4.348772	-2.635965	 4.993658	 6.788941	-5.165319	 0.784187	 3.516649	-5.225038	 0.466231	 0.424329	-0.000002	-3.783157	-0.089647	-6.334437	 4.973419	 0.275361	 89.782160	 78.203900	 179.999900	-59.956720	 39.687450	 59.939820	 14.590400	 0.830080	 4.644272	 29.597010	-1.493114	 8.454000	 6.112037	 4.509576	-0.364401	 4.968462	 1.518543	-9.347576	 5.168945	 0.703820	 2.021906
-0.000646	 0.022090	 1.236432	 0.003533	-0.002133	-0.173612	 22.007710	-12.558800	 175.773500	 1.027532	-30.227850	-1.920895	-20.437610	 78.128560	 15.149630	-2.385833	 28.452760	 0.000004	-22.044390	-13.148600	-175.554100	-1.002919	-30.731370	 1.923879	 20.056990	 78.371320	-14.849070	 2.384658	 28.388730	 0.000004	-19.308730	 2.992689	-0.139295	 2.112480	 2.808253	 0.882569	-6.368784	-3.391146	-1.311630	-91.776150	 78.527470	 180.000000	 46.740620	 33.237710	-58.919710	-20.470070	 1.731256	-7.036229	-30.625860	 0.208830	-4.346220	-2.635965	 4.993658	 6.788941	-5.165319	 0.784187	 3.516649	-5.225038	 0.466231	 0.424329	-0.000002	-3.783157	-0.089647	-6.239029	 5.159895	 0.281387	 89.781990	 78.203870	-179.999900	-56.161480	 37.427660	 57.692180	 17.084510	 7.471787	 15.857390	 30.280440	-2.217174	 7.969927	 6.112037	 4.509576	-0.364401	 4.968462	 1.518543	-9.347576	 5.168945	 0.703820	 2.021906
-0.000648	 0.022965	 1.223910	 0.004090	-0.001237	-0.164259	 24.884100	-15.130530	 175.748300	 0.824542	-34.874470	-2.297843	-25.251060	 80.062390	 20.054570	-2.385833	 28.452760	 0.000004	-24.923360	-15.688190	-175.558900	-0.802233	-35.304520	 2.291881	 24.792690	 80.295560	-19.666200	 2.384658	 28.388730	 0.000004	-26.362840	 3.071337	-0.147436	 2.058757	 2.527483	 0.876987	-6.209469	-3.041566	-1.255394	-91.776150	 78.527470	 180.000000	 46.141060	 32.761610	-58.004160	-24.831500	 2.992730	-9.246245	-31.111530	 0.316441	-4.342139	-2.635965	 4.993658	 6.788941	-5.165319	 0.784187	 3.516649	-5.225038	 0.466231	 0.424329	-0.000002	-3.783157	-0.089647	-6.097548	 5.346895	 0.284974	 89.782100	 78.203890	 180.000000	-52.757020	 35.358180	 60.949710	 18.772430	 10.676120	 20.255670	 30.325410	-3.148837	 7.093534	 6.112037	 4.509576	-0.364401	 4.968462	 1.518543	-9.347576	 5.168945	 0.703820	 2.021906
-0.000630	 0.023385	 1.222457	 0.004683	-0.000238	-0.153886	 25.336030	-15.426630	 175.733600	 0.800169	-35.366740	-2.340205	-25.840150	 80.248630	 20.636080	-2.385833	 28.452760	 0.000004	-25.413570	-15.982870	-175.569700	-0.778663	-35.779560	 2.332428	 25.227620	 80.473950	-20.119340	 2.384658	 28.388730	 0.000004	-31.587000	 3.148935	-0.152740	 1.989004	 2.249837	 0.863612	-6.001204	-2.698760	-1.191147	-91.776100	 78.527450	 179.999900	 45.758820	 32.516820	-57.510090	-29.049260	 4.526896	-11.213270	-31.498660	 0.440851	-4.317350	-2.635965	 4.993658	 6.788941	-5.165319	 0.784187	 3.516649	-5.225038	 0.466231	 0.424329	-0.000002	-3.783157	-0.089647	-5.906658	 5.537267	 0.285880	 89.782070	 78.203900	-180.000000	-48.756240	 33.043680	 64.990810	 18.906550	 14.481960	 25.234180	 29.625710	-4.264095	 5.669206	 6.112037	 4.509576	-0.364401	 4.968462	 1.518543	-9.347576	 5.168945	 0.703820	 2.021906
